<svg width="360" height="360" viewBox="0 0 360 360" fill="none" xmlns="http://www.w3.org/2000/svg">
<path d="M90 180H105V195H195V180H210V165H225V75H210V60H195V45H105V60H90V75H75V165H90V180ZM105 105H120V90H135V75H165V90H180V105H195V135H180V150H165V165H135V150H120V135H105V105Z" fill="black"/>
<path d="M255 225H240V210H60V225H45V240H30V315H60V270H75V255H90V240H210V255H225V270H240V285V300V315H270V240H255V225Z" fill="black"/>
<path d="M300 105V90V75H270V105H240V135H270V165H300V135H330V105H300Z" fill="black"/>
</svg>
